<svg width="57" height="29" viewBox="0 0 57 29" fill="none" xmlns="http://www.w3.org/2000/svg">
<path fill-rule="evenodd" clip-rule="evenodd" d="M45.447 20.3775L52.25 14.1716L49.0276 7.75153L45.447 20.3775Z" fill="#097939"/>
<path fill-rule="evenodd" clip-rule="evenodd" d="M43.1556 20.3775L49.9586 14.1716L46.7362 7.75153L43.1556 20.3775Z" fill="#ED752E"/>
<path fill-rule="evenodd" clip-rule="evenodd" d="M10.6447 7.82325L7.78045 18.0239L17.9488 18.0951L20.7418 7.82325H23.3196L19.9709 19.7648C19.8426 20.2208 19.3543 20.5913 18.8807 20.5913H5.8472C5.0568 20.5913 4.58845 19.9738 4.8022 19.2138L7.9961 7.82325H10.6447ZM42.0812 7.75201H44.659L41.0784 20.5913H38.4279L42.0812 7.75201ZM23.6065 13.1015L36.4961 13.0302L37.3559 10.3194H24.2506L25.0382 7.82278L39.0032 7.69453C39.8724 7.68645 40.3902 8.35953 40.1612 9.19886L38.8455 14.0078C38.616 14.8466 37.7245 15.5263 36.8552 15.5263H25.3251L23.9656 20.805H21.4576L23.6065 13.1015Z" fill="black"/>
</svg>
